<?xml version="1.0" encoding="UTF-8"?>
<!DOCTYPE svg PUBLIC "-//W3C//DTD SVG 1.1//EN" "http://www.w3.org/Graphics/SVG/1.1/DTD/svg11.dtd">
<svg xmlns="http://www.w3.org/2000/svg" version="1.1" width="2133px" height="1600px" style="shape-rendering:geometricPrecision; text-rendering:geometricPrecision; image-rendering:optimizeQuality; fill-rule:evenodd; clip-rule:evenodd" xmlns:xlink="http://www.w3.org/1999/xlink">
<g><path style="opacity:0.977" fill="#fefefe" d="M 1160.5,469.5 C 1162.14,469.286 1163.64,469.62 1165,470.5C 1186.83,503.5 1208.67,536.5 1230.5,569.5C 1224.04,573.903 1217.37,578.07 1210.5,582C 1186.01,594.745 1161.67,607.745 1137.5,621C 1172.97,624.2 1204.3,637.034 1231.5,659.5C 1234.17,647.5 1236.83,635.5 1239.5,623.5C 1248.5,618.333 1257.5,613.167 1266.5,608C 1296.23,607.546 1325.9,606.88 1355.5,606C 1365.47,600.681 1375.47,595.348 1385.5,590C 1422.17,589.167 1458.84,589.333 1495.5,590.5C 1503.83,641.165 1512.17,691.832 1520.5,742.5C 1520.83,742.833 1521.17,743.167 1521.5,743.5C 1546.83,727.58 1574.5,718.914 1604.5,717.5C 1604.33,690.165 1604.5,662.831 1605,635.5C 1614.58,629.375 1624.58,624.042 1635,619.5C 1688.89,631.078 1742.72,642.911 1796.5,655C 1797.52,655.519 1798.18,656.353 1798.5,657.5C 1799.51,662.536 1800.68,667.536 1802,672.5C 1809.23,668.554 1816.56,664.887 1824,661.5C 1868.56,672.098 1913.06,682.931 1957.5,694C 1959.57,694.118 1960.91,695.118 1961.5,697C 1918.35,831.091 1874.35,964.924 1829.5,1098.5C 1819.37,1104.9 1808.7,1110.23 1797.5,1114.5C 1763.7,1104.51 1730.03,1094.01 1696.5,1083C 1695.51,1069.58 1695.18,1056.08 1695.5,1042.5C 1662.45,1038.16 1629.45,1033.49 1596.5,1028.5C 1597.91,1012.31 1599.58,996.145 1601.5,980C 1601.17,979.167 1600.83,978.333 1600.5,977.5C 1587.22,982.457 1573.55,985.957 1559.5,988C 1559.04,988.414 1558.71,988.914 1558.5,989.5C 1561.36,1001.01 1562.86,1012.68 1563,1024.5C 1556.22,1028.47 1549.38,1032.31 1542.5,1036C 1538.87,1037.9 1535.04,1039.07 1531,1039.5C 1483.08,1031.52 1435.24,1023.02 1387.5,1014C 1386.15,1013.23 1385.32,1012.06 1385,1010.5C 1383.33,999.167 1381.67,987.833 1380,976.5C 1372.05,979.975 1364.38,983.975 1357,988.5C 1352.01,978.508 1346.51,968.842 1340.5,959.5C 1332.01,963.578 1323.68,967.912 1315.5,972.5C 1272.24,965.068 1228.91,958.068 1185.5,951.5C 1187.68,933.411 1190.18,915.411 1193,897.5C 1176.47,906.182 1159.3,913.348 1141.5,919C 1136.54,920.158 1131.54,920.992 1126.5,921.5C 1126.83,955.173 1126.5,988.84 1125.5,1022.5C 1115.57,1027.38 1105.74,1032.38 1096,1037.5C 1025.59,1002.79 955.256,968.127 885,933.5C 883.983,939.954 883.483,946.454 883.5,953C 884.615,970.734 884.615,988.401 883.5,1006C 873.071,1011.88 862.404,1017.21 851.5,1022C 813.991,1027.79 776.491,1033.29 739,1038.5C 737.883,1037.05 737.216,1035.38 737,1033.5C 735.857,1020.72 734.19,1008.06 732,995.5C 714.603,1009.29 695.436,1020.12 674.5,1028C 635.706,1039.36 599.706,1033.69 566.5,1011C 554.01,1000.5 543.51,988.333 535,974.5C 540.311,995.743 545.644,1017.08 551,1038.5C 553.655,1048.77 555.655,1059.1 557,1069.5C 546.251,1076.46 535.418,1083.29 524.5,1090C 485.259,1102.8 445.925,1115.3 406.5,1127.5C 405.833,1127.17 405.167,1126.83 404.5,1126.5C 361.996,1029.5 318.996,932.836 275.5,836.5C 267.388,839.39 259.388,842.556 251.5,846C 249.098,846.814 246.765,846.647 244.5,845.5C 217.5,801.143 191.333,756.476 166,711.5C 173.863,703.302 182.03,695.469 190.5,688C 246.348,647.422 308.348,620.422 376.5,607C 414.91,600.669 453.244,601.002 491.5,608C 536.575,618.106 571.408,642.606 596,681.5C 610.716,709.551 615.382,739.218 610,770.5C 629.46,758.012 650.627,749.845 673.5,746C 685.829,745.5 698.162,745.333 710.5,745.5C 710.093,739.839 709.76,734.172 709.5,728.5C 700.688,729.324 692.022,730.99 683.5,733.5C 682.558,733.392 681.725,733.059 681,732.5C 678.702,703.532 677.368,674.532 677,645.5C 687.194,638.819 698.028,633.319 709.5,629C 763.226,611.091 817.059,593.591 871,576.5C 871.333,583.5 871.667,590.5 872,597.5C 874.128,594.37 876.628,591.537 879.5,589C 888.586,583.707 897.752,578.54 907,573.5C 940.964,603.129 974.631,633.129 1008,663.5C 1015.25,659.46 1022.42,655.293 1029.5,651C 1023.79,643.742 1017.95,636.575 1012,629.5C 1010,627.167 1010,624.833 1012,622.5C 1052.17,576.333 1092.33,530.167 1132.5,484C 1141.77,478.867 1151.1,474.033 1160.5,469.5 Z M 1157.5,516.5 C 1158.5,516.414 1159.33,516.748 1160,517.5C 1170.62,531.912 1181.12,546.412 1191.5,561C 1159.46,579.02 1126.8,596.02 1093.5,612C 1089.26,610.746 1086.59,607.746 1085.5,603C 1108.2,573.125 1132.2,544.292 1157.5,516.5 Z M 1425.5,619.5 C 1438.5,619.333 1451.5,619.5 1464.5,620C 1466.43,620.251 1468.27,620.751 1470,621.5C 1477.74,670.148 1485.24,718.814 1492.5,767.5C 1486.53,777.301 1480.36,786.967 1474,796.5C 1450.38,839.801 1450.71,882.801 1475,925.5C 1487.51,943.007 1503.35,956.674 1522.5,966.5C 1524.78,972.286 1525.61,978.286 1525,984.5C 1498.69,980.003 1472.36,975.67 1446,971.5C 1438.33,924.146 1430.66,876.813 1423,829.5C 1412.48,854.719 1402.15,880.052 1392,905.5C 1377.2,873.226 1361.86,841.226 1346,809.5C 1339.19,846.709 1332.69,884.042 1326.5,921.5C 1325.83,921.833 1325.17,922.167 1324.5,922.5C 1300.3,918.116 1276.13,913.782 1252,909.5C 1254.56,888.44 1257.9,867.44 1262,846.5C 1273.02,834.984 1283.85,823.317 1294.5,811.5C 1287.18,804.345 1279.68,797.345 1272,790.5C 1271.83,789.5 1271.67,788.5 1271.5,787.5C 1280.05,737.524 1288.38,687.524 1296.5,637.5C 1322.18,637.167 1347.84,637.5 1373.5,638.5C 1379.7,673.028 1386.53,707.361 1394,741.5C 1400.59,701.093 1408.09,660.927 1416.5,621C 1419.69,620.819 1422.69,620.319 1425.5,619.5 Z M 835.5,623.5 C 836.794,625.048 837.461,627.048 837.5,629.5C 839.335,660.865 841.502,692.199 844,723.5C 849.906,716.683 855.573,709.683 861,702.5C 879.421,675.991 898.088,649.658 917,623.5C 941.283,644.948 964.783,667.281 987.5,690.5C 955.234,726.436 922.234,761.769 888.5,796.5C 918.784,808.762 949.117,820.929 979.5,833C 986.38,840.879 992.88,849.045 999,857.5C 1025,885.585 1057.17,901.585 1095.5,905.5C 1095.83,927.51 1095.5,949.51 1094.5,971.5C 1015.17,931.833 935.833,892.167 856.5,852.5C 855.667,894.163 855.167,935.829 855,977.5C 834.605,980.982 814.105,983.982 793.5,986.5C 792.663,970.123 791.33,953.79 789.5,937.5C 802.191,913.57 809.191,888.07 810.5,861C 810.294,829.445 799.46,802.278 778,779.5C 777.027,777.608 776.36,775.608 776,773.5C 773.153,740.514 770.486,707.514 768,674.5C 765.879,672.543 763.379,672.043 760.5,673C 753.915,674.641 747.415,676.474 741,678.5C 739.784,676.038 739.118,673.371 739,670.5C 738.17,664.472 738.336,658.472 739.5,652.5C 771.607,642.794 803.607,633.127 835.5,623.5 Z M 408.5,635.5 C 431.942,634.754 455.275,635.921 478.5,639C 515.079,645.848 543.912,664.348 565,694.5C 577.879,715.228 581.879,737.561 577,761.5C 571.773,786.282 561.44,808.615 546,828.5C 526.861,851.975 504.861,872.308 480,889.5C 479.333,891.5 479.333,893.5 480,895.5C 493.161,945.813 505.828,996.146 518,1046.5C 497.302,1053.76 476.302,1060.09 455,1065.5C 454.167,1065.17 453.333,1064.83 452.5,1064.5C 407.266,964.704 362.6,864.704 318.5,764.5C 306.983,769.932 295.316,774.766 283.5,779C 267.37,753.246 251.87,727.079 237,700.5C 236.333,699.5 236.333,698.5 237,697.5C 289.617,664.239 346.784,643.572 408.5,635.5 Z M 1122.5,654.5 C 1161.65,652.421 1194.31,665.754 1220.5,694.5C 1213.19,703.646 1205.69,712.646 1198,721.5C 1172.93,747.232 1148.6,773.566 1125,800.5C 1124.52,801.448 1124.35,802.448 1124.5,803.5C 1146.38,803.488 1165.71,796.655 1182.5,783C 1187.03,778.133 1191.87,773.633 1197,769.5C 1214.26,784.549 1231.43,799.716 1248.5,815C 1200,862.165 1142.34,880.165 1075.5,869C 1026.93,853.746 1001.6,820.579 999.5,769.5C 1000.52,729.356 1017.85,698.522 1051.5,677C 1073.38,663.538 1097.05,656.038 1122.5,654.5 Z M 1664.5,658.5 C 1689.1,663.435 1713.77,668.268 1738.5,673C 1748.84,674.959 1759,677.459 1769,680.5C 1780.95,735.94 1793.29,791.274 1806,846.5C 1818.96,797.337 1831.29,748.004 1843,698.5C 1869.14,702.93 1895.3,708.43 1921.5,715C 1921.96,715.414 1922.29,715.914 1922.5,716.5C 1884.62,830.795 1846.96,945.128 1809.5,1059.5C 1790.67,1055.13 1772.01,1050.13 1753.5,1044.5C 1751.79,976.472 1749.63,908.472 1747,840.5C 1737.28,891.465 1727.78,942.465 1718.5,993.5C 1717.56,994.553 1716.4,995.22 1715,995.5C 1696.18,992.336 1677.35,989.336 1658.5,986.5C 1658.97,971.12 1660.14,955.786 1662,940.5C 1690.29,915.26 1707.62,883.926 1714,846.5C 1718.33,808.48 1707.33,775.814 1681,748.5C 1681.94,730.451 1683.27,712.451 1685,694.5C 1677.98,691.074 1670.64,688.407 1663,686.5C 1662.15,677.072 1662.65,667.738 1664.5,658.5 Z M 1107.5,720.5 C 1112.22,720.506 1116.88,721.006 1121.5,722C 1122.45,722.718 1122.62,723.551 1122,724.5C 1109.07,740.934 1095.23,756.601 1080.5,771.5C 1072.35,745.461 1081.35,728.461 1107.5,720.5 Z M 1595.5,746.5 C 1632.37,745.178 1660.2,760.178 1679,791.5C 1693.29,828.141 1688.96,862.474 1666,894.5C 1637.08,934.034 1598.25,950.868 1549.5,945C 1521.18,937.009 1501.35,919.509 1490,892.5C 1479.59,853.808 1487.59,819.474 1514,789.5C 1535.9,764.969 1563.07,750.636 1595.5,746.5 Z M 461.5,753.5 C 476.284,750.815 487.451,755.815 495,768.5C 498.803,786.424 493.803,801.424 480,813.5C 472.92,793.761 466.753,773.761 461.5,753.5 Z M 967.5,757.5 C 967.378,770.319 968.044,783.319 969.5,796.5C 959.17,793.5 949.17,789.667 939.5,785C 948.728,775.604 958.062,766.437 967.5,757.5 Z M 693.5,769.5 C 733.079,770.95 760.912,789.616 777,825.5C 786.704,858.199 782.704,889.199 765,918.5C 737.652,962.093 698.152,982.927 646.5,981C 607.973,973.807 583.473,951.307 573,913.5C 567.488,879.548 575.155,848.882 596,821.5C 620.918,789.793 653.418,772.459 693.5,769.5 Z"/></g>
<g><path style="opacity:0.961" fill="#fefefe" d="M 1101.5,699.5 C 1120.71,696.841 1137.55,701.841 1152,714.5C 1152.71,716.081 1153.54,717.581 1154.5,719C 1130.4,747.935 1105.4,776.102 1079.5,803.5C 1059.49,788.322 1051.99,768.322 1057,743.5C 1063.75,720.579 1078.59,705.912 1101.5,699.5 Z M 1107.5,720.5 C 1081.35,728.461 1072.35,745.461 1080.5,771.5C 1095.23,756.601 1109.07,740.934 1122,724.5C 1122.62,723.551 1122.45,722.718 1121.5,722C 1116.88,721.006 1112.22,720.506 1107.5,720.5 Z"/></g>
<g><path style="opacity:0.965" fill="#fefefe" d="M 460.5,727.5 C 505.582,727.07 525.415,749.07 520,793.5C 515.267,810.893 505.767,825.06 491.5,836C 484.087,842.121 476.254,847.621 468,852.5C 466.347,852.18 465.347,851.18 465,849.5C 452.521,813.565 441.355,777.231 431.5,740.5C 431.57,739.228 431.903,738.062 432.5,737C 441.578,732.697 450.912,729.53 460.5,727.5 Z M 461.5,753.5 C 466.753,773.761 472.92,793.761 480,813.5C 493.803,801.424 498.803,786.424 495,768.5C 487.451,755.815 476.284,750.815 461.5,753.5 Z"/></g>
<g><path style="opacity:0.967" fill="#fefefe" d="M 1582.5,767.5 C 1589.17,767.334 1595.84,767.5 1602.5,768C 1588.14,771.027 1578.98,779.527 1575,793.5C 1574.66,808.841 1581.82,819.007 1596.5,824C 1611.53,827.435 1624.03,823.269 1634,811.5C 1636.76,805.499 1638.26,799.165 1638.5,792.5C 1651.37,819.188 1645.7,841.021 1621.5,858C 1594.14,871.599 1569.97,867.432 1549,845.5C 1539.16,831.412 1536.83,816.078 1542,799.5C 1550,781.763 1563.5,771.097 1582.5,767.5 Z"/></g>
<g><path style="opacity:0.968" fill="#fefffe" d="M 682.5,793.5 C 686.555,793.176 690.555,793.509 694.5,794.5C 683.819,797.41 675.986,803.743 671,813.5C 666.798,829.259 671.964,840.759 686.5,848C 703.806,854.565 717.973,850.398 729,835.5C 731.054,829.542 732.72,823.542 734,817.5C 745.724,841.213 741.891,862.046 722.5,880C 709.286,890.514 694.286,894.181 677.5,891C 645.387,882.963 631.554,862.463 636,829.5C 644.438,808.213 659.938,796.213 682.5,793.5 Z"/></g>
<g><path style="opacity:0.766" fill="#fefffe" d="M 1851.5,1064.5 C 1855.31,1063.35 1859.31,1063.19 1863.5,1064C 1862.42,1064.96 1861.25,1065.79 1860,1066.5C 1858.97,1070.77 1858.3,1075.11 1858,1079.5C 1857.59,1079.96 1857.09,1080.29 1856.5,1080.5C 1855.76,1075.48 1854.92,1070.48 1854,1065.5C 1853.33,1064.75 1852.5,1064.41 1851.5,1064.5 Z"/></g>
<g><path style="opacity:0.707" fill="#fefffe" d="M 1866.5,1063.5 C 1868.72,1063.18 1870.56,1063.84 1872,1065.5C 1872.95,1069.03 1874.28,1072.36 1876,1075.5C 1877.4,1071.79 1878.9,1068.13 1880.5,1064.5C 1881,1063.48 1881.67,1063.31 1882.5,1064C 1883.64,1069.08 1883.8,1074.25 1883,1079.5C 1882.01,1076.58 1881.35,1073.58 1881,1070.5C 1879.69,1074.45 1877.86,1078.11 1875.5,1081.5C 1873.01,1078.21 1871.17,1074.54 1870,1070.5C 1869.67,1073.17 1869.33,1075.83 1869,1078.5C 1868.58,1079.67 1867.91,1080.67 1867,1081.5C 1865.23,1075.53 1865.06,1069.53 1866.5,1063.5 Z"/></g>
</svg>
