<?xml version="1.0" standalone="no"?>
<!DOCTYPE svg PUBLIC "-//W3C//DTD SVG 20010904//EN"
 "http://www.w3.org/TR/2001/REC-SVG-20010904/DTD/svg10.dtd">
<svg version="1.0" xmlns="http://www.w3.org/2000/svg"
 width="1600.000000pt" height="1200.000000pt" viewBox="0 0 1600.000000 1200.000000"
 preserveAspectRatio="xMidYMid meet">

<g transform="translate(0.000000,1200.000000) scale(0.100000,-0.100000)"
fill="#000000" stroke="none">
<path d="M8614 8422 l-112 -57 -448 -515 c-247 -284 -455 -523 -463 -533 -12
-15 -5 -27 63 -106 42 -49 76 -93 76 -98 0 -4 -38 -28 -84 -52 l-83 -44 -379
336 -378 336 -111 -59 c-89 -47 -114 -66 -132 -97 l-22 -38 -3 86 -3 86 -615
-197 c-540 -172 -628 -204 -725 -255 -60 -32 -111 -59 -113 -61 -5 -3 29 -648
34 -653 2 -3 49 6 104 19 55 13 101 22 104 19 2 -2 6 -33 8 -69 l5 -65 -141 0
c-111 -1 -160 -6 -229 -23 -116 -29 -224 -73 -316 -128 -41 -24 -76 -43 -78
-41 -2 3 2 38 8 78 16 101 6 284 -21 379 -68 240 -230 447 -472 600 -172 108
-291 151 -513 184 -442 67 -931 -9 -1429 -220 -217 -93 -329 -152 -571 -305
-108 -68 -162 -110 -233 -182 l-93 -94 292 -494 c160 -272 297 -500 304 -507
9 -10 33 -4 119 33 60 26 112 43 116 38 4 -4 222 -496 484 -1093 263 -597 479
-1086 481 -1088 1 -1 207 63 456 143 l454 147 109 71 c60 40 113 75 118 78 8
5 -109 479 -168 683 -16 58 -16 58 35 -21 52 -81 163 -197 235 -245 84 -58
192 -105 293 -129 75 -18 109 -20 228 -16 165 6 254 27 392 92 88 41 258 150
283 181 7 8 16 14 20 14 4 0 13 -72 20 -161 8 -94 18 -163 24 -165 6 -2 203
24 437 59 l425 63 115 61 114 61 -4 271 c-2 149 -1 271 3 271 4 0 363 -176
799 -392 l791 -391 113 59 113 59 0 375 0 375 67 13 c102 19 206 58 331 122
61 32 112 55 112 51 0 -3 -14 -85 -30 -181 -16 -96 -30 -186 -30 -200 l0 -26
488 -78 487 -77 90 49 c50 27 93 48 97 46 4 -3 32 -52 63 -110 l57 -105 85 46
c47 25 87 44 89 42 3 -3 12 -65 21 -138 9 -74 19 -137 22 -141 6 -6 1072 -198
1103 -198 12 0 207 100 227 116 4 3 -25 208 -36 251 -4 19 0 23 34 28 94 15
188 38 234 57 27 12 52 18 55 15 3 -3 -4 -89 -16 -192 -13 -102 -21 -187 -19
-189 2 -1 157 -24 344 -50 187 -27 352 -50 368 -53 l27 -5 0 -149 0 -148 223
-71 c122 -40 291 -94 375 -121 84 -27 160 -49 169 -49 8 0 64 26 124 58 l109
57 501 1509 c275 830 497 1512 492 1516 -9 7 -1010 250 -1031 250 -7 0 -46
-18 -86 -40 -40 -22 -75 -40 -78 -40 -3 0 -11 29 -18 65 -7 36 -14 65 -15 65
-2 0 -279 61 -616 135 l-612 134 -101 -55 c-55 -31 -105 -60 -111 -65 -6 -6
-8 -123 -6 -314 l3 -303 -44 -6 c-23 -3 -71 -8 -106 -11 -132 -13 -310 -77
-435 -157 -26 -17 -49 -29 -51 -27 -2 2 -42 252 -90 554 -48 303 -89 562 -92
578 l-6 27 -409 0 -409 0 -88 -47 c-48 -25 -99 -55 -114 -65 -24 -16 -53 -18
-355 -19 l-328 0 -110 -62 -109 -62 -23 -134 c-12 -73 -24 -135 -26 -137 -2
-2 -21 11 -43 30 -153 131 -361 217 -593 247 l-93 12 75 41 c41 23 201 109
356 191 154 83 281 154 281 158 0 8 -483 732 -499 749 -3 3 -56 -19 -117 -50z
m215 -470 c62 -84 114 -158 117 -165 3 -8 -136 -82 -376 -202 l-381 -190 -19
25 c-36 46 -34 58 12 113 455 552 503 607 519 589 9 -9 66 -86 128 -170z
m2206 -624 c9 -40 165 -1067 165 -1088 0 -11 -26 -55 -58 -98 -174 -235 -246
-529 -193 -787 52 -252 217 -471 433 -576 52 -25 54 -28 64 -112 6 -57 6 -58
-17 -53 -13 3 -150 24 -304 47 -154 23 -281 43 -282 44 -2 1 -39 242 -83 535
-45 294 -82 536 -83 537 -2 1 -47 -114 -102 -255 -139 -361 -125 -330 -138
-307 -6 11 -84 177 -174 369 -89 193 -164 343 -167 335 -3 -7 -34 -200 -70
-428 -36 -227 -67 -415 -68 -416 -2 -2 -129 19 -283 46 -154 27 -283 49 -286
49 -3 0 12 107 34 237 l39 237 122 129 c66 71 122 132 124 136 1 4 -38 41 -86
84 l-89 77 97 572 96 573 292 3 c161 1 292 0 292 -2 0 -3 32 -177 70 -388 63
-338 80 -421 80 -380 0 16 149 862 156 885 5 15 24 17 209 17 204 0 205 0 210
-22z m-4726 -368 c12 -201 23 -373 24 -384 1 -11 105 126 271 360 148 209 272
382 276 386 5 7 530 -484 538 -503 2 -4 -166 -185 -372 -402 l-375 -395 317
-126 c174 -69 332 -131 350 -137 25 -8 45 -30 79 -83 65 -100 220 -250 321
-310 107 -64 241 -114 375 -140 l107 -21 0 -252 0 -253 -900 450 -900 450 0
-470 0 -470 -22 -5 c-23 -5 -355 -51 -413 -57 l-30 -3 -16 190 -16 190 43 90
c180 380 139 790 -107 1060 l-36 40 -32 380 c-17 209 -31 388 -31 397 0 15
-11 14 -104 -11 l-104 -28 -6 36 c-3 20 -6 65 -6 101 l0 65 373 111 c204 61
373 111 373 110 1 -1 12 -165 23 -366z m-2764 255 c207 -31 370 -102 525 -227
130 -105 234 -270 266 -419 41 -189 -14 -438 -142 -652 -123 -205 -340 -427
-541 -556 -29 -18 -53 -39 -53 -47 0 -8 68 -274 150 -591 83 -317 149 -577
148 -578 -18 -13 -492 -155 -497 -148 -4 4 -234 514 -511 1133 -276 619 -504
1126 -505 1128 -2 2 -58 -24 -125 -58 -68 -34 -126 -58 -130 -53 -15 16 -360
603 -360 612 0 12 138 95 259 156 325 163 716 283 1021 314 126 13 359 6 495
-14z m5133 -141 c91 -19 196 -61 281 -112 65 -39 185 -141 200 -171 8 -15 -52
-84 -359 -412 -205 -218 -366 -397 -361 -402 11 -11 147 9 226 34 85 26 169
79 247 156 60 60 68 64 85 52 11 -8 99 -86 197 -174 l178 -160 -73 -68 c-229
-213 -583 -359 -904 -374 -254 -11 -457 50 -635 192 -262 208 -343 629 -182
950 119 239 373 421 672 484 121 25 319 28 428 5z m4202 -90 c212 -43 388 -80
392 -83 4 -4 67 -289 140 -634 72 -345 135 -622 139 -615 3 7 66 261 139 563
73 303 133 551 134 552 3 3 600 -128 604 -132 3 -3 -847 -2586 -853 -2593 -3
-4 -417 117 -423 123 -2 2 -12 346 -22 765 -10 419 -20 763 -22 765 -2 2 -43
-222 -92 -498 -49 -276 -95 -539 -104 -584 -14 -79 -16 -83 -41 -83 -34 1
-429 65 -434 70 -3 3 3 82 12 175 l16 170 59 55 c128 121 260 341 306 510 80
300 13 615 -175 818 l-54 58 19 195 c11 107 20 199 20 205 0 6 -38 21 -85 34
l-85 23 0 71 c0 77 9 146 19 146 3 0 179 -34 391 -76z m-712 -599 c232 -46
418 -220 478 -445 22 -85 23 -252 1 -343 -64 -264 -273 -515 -522 -628 -126
-57 -207 -74 -350 -73 -116 0 -139 3 -210 28 -110 38 -181 84 -258 166 -113
119 -167 261 -167 441 0 372 303 745 685 842 117 30 231 34 343 12z m-4902
-105 c-3 -22 -2 -91 4 -152 6 -61 9 -112 8 -113 -2 -2 -56 18 -121 43 l-118
45 108 109 c59 59 112 108 117 108 5 0 6 -18 2 -40z m-1881 -76 c150 -35 302
-142 384 -268 252 -386 41 -974 -434 -1213 -166 -84 -377 -115 -539 -79 -317
71 -536 368 -513 696 40 551 593 985 1102 864z"/>
<path d="M3441 6530 c-74 -11 -201 -59 -201 -76 0 -42 252 -846 266 -851 18
-6 203 137 266 205 172 186 192 465 44 613 -51 52 -141 95 -226 108 -71 12
-72 12 -149 1z m161 -190 c48 -14 97 -55 114 -97 18 -43 18 -127 -1 -189 -13
-44 -96 -164 -113 -164 -6 0 -113 339 -126 402 -3 14 -9 33 -12 42 -5 13 3 16
47 16 30 0 71 -5 91 -10z"/>
<path d="M8218 6730 c-77 -27 -113 -50 -174 -110 -117 -116 -154 -293 -95
-450 23 -61 80 -141 126 -176 l30 -23 270 305 c149 168 274 312 280 319 15 22
-39 71 -122 112 -64 32 -83 36 -165 40 -75 3 -104 0 -150 -17z m210 -149 c9
-5 -39 -66 -148 -192 -89 -101 -165 -185 -169 -187 -17 -6 -36 65 -35 128 1
135 101 242 244 263 29 4 90 -3 108 -12z"/>
<path d="M11830 6226 c-112 -31 -195 -98 -242 -194 -30 -60 -33 -75 -33 -157
0 -79 3 -97 29 -150 118 -240 447 -296 646 -109 27 25 62 72 77 103 25 50 28
67 28 156 0 84 -3 106 -22 140 l-22 40 -1 -42 c0 -56 -15 -91 -53 -131 -99
-103 -263 -107 -361 -8 -51 51 -70 100 -64 167 8 83 74 154 170 184 l43 14
-75 -1 c-41 0 -95 -5 -120 -12z"/>
<path d="M5035 6026 c-105 -33 -198 -113 -240 -207 -24 -55 -27 -70 -23 -152
3 -103 26 -162 85 -228 83 -91 191 -133 328 -127 79 3 101 8 157 36 79 39 149
110 186 190 37 79 38 203 2 277 l-24 50 -6 -50 c-8 -64 -30 -104 -80 -147 -96
-83 -249 -76 -339 13 -49 49 -65 94 -59 165 7 79 66 148 154 179 l39 14 -70 0
c-38 0 -88 -6 -110 -13z"/>
<path d="M13898 4013 c20 -4 22 -10 22 -64 0 -76 18 -77 22 -2 3 51 6 58 28
64 16 5 4 7 -35 7 -33 -1 -50 -3 -37 -5z"/>
<path d="M14000 3955 c0 -37 4 -65 10 -65 6 0 10 24 11 53 l0 52 21 -52 c11
-29 24 -53 29 -53 4 0 13 17 20 38 19 59 24 60 30 7 6 -49 6 -48 7 18 2 82
-13 86 -39 11 l-17 -49 -11 28 c-6 15 -14 39 -17 52 -4 16 -13 25 -25 25 -17
0 -19 -8 -19 -65z"/>
</g>
</svg>
